<svg width="60" height="60" viewBox="0 0 60 60" fill="none" xmlns="http://www.w3.org/2000/svg">
<path d="M7.5 22.5H52.5M17.5 7.5V12.5M42.5 7.5V12.5M15 30H25V40H15V30ZM15.5 52.5H44.5C47.3002 52.5 48.7005 52.5 49.77 51.955C50.7108 51.4757 51.4757 50.7108 51.955 49.77C52.5 48.7005 52.5 47.3002 52.5 44.5V20.5C52.5 17.6997 52.5 16.2996 51.955 15.2301C51.4757 14.2892 50.7108 13.5243 49.77 13.045C48.7005 12.5 47.3002 12.5 44.5 12.5H15.5C12.6997 12.5 11.2996 12.5 10.2301 13.045C9.28923 13.5243 8.52432 14.2892 8.04497 15.2301C7.5 16.2996 7.5 17.6997 7.5 20.5V44.5C7.5 47.3002 7.5 48.7005 8.04497 49.77C8.52432 50.7108 9.28923 51.4757 10.2301 51.955C11.2996 52.5 12.6997 52.5 15.5 52.5Z" stroke="black" stroke-width="4" stroke-linecap="round" stroke-linejoin="round"/>
</svg>
