<svg width="60" height="60" viewBox="0 0 60 60" fill="none" xmlns="http://www.w3.org/2000/svg">
<path d="M52.5 13.75C52.5 35.151 35.151 52.5 13.75 52.5C12.7844 52.5 11.8271 52.4647 10.8793 52.3952C9.79155 52.3155 9.24765 52.2758 8.75257 51.9908C8.34252 51.7548 7.95365 51.3363 7.74813 50.91C7.5 50.3955 7.5 49.7952 7.5 48.595V41.5518C7.5 40.5423 7.5 40.0375 7.66613 39.605C7.81288 39.2228 8.05123 38.8825 8.36025 38.614C8.71007 38.31 9.1844 38.1375 10.133 37.7925L18.1501 34.8773C19.2538 34.476 19.8057 34.2752 20.3292 34.3092C20.7909 34.3392 21.2352 34.497 21.6126 34.7645C22.0407 35.0677 22.3428 35.5713 22.947 36.5785L25 40C31.6247 36.9998 36.9952 31.6223 40 25L36.5785 22.947C35.5713 22.3428 35.0677 22.0407 34.7645 21.6126C34.497 21.2352 34.3392 20.7909 34.3092 20.3292C34.2752 19.8057 34.476 19.2538 34.8773 18.1501L37.7925 10.133C38.1375 9.1844 38.31 8.71007 38.614 8.36025C38.8825 8.05123 39.2228 7.81288 39.605 7.66613C40.0375 7.5 40.5423 7.5 41.5518 7.5H48.595C49.7952 7.5 50.3955 7.5 50.91 7.74813C51.3363 7.95365 51.7548 8.34252 51.9908 8.75257C52.2758 9.24767 52.3155 9.79155 52.3952 10.8793C52.4647 11.8271 52.5 12.7844 52.5 13.75Z" stroke="black" stroke-width="3" stroke-linecap="round" stroke-linejoin="round"/>
</svg>
