<svg width="37" height="37" viewBox="0 0 37 37" fill="none" xmlns="http://www.w3.org/2000/svg">
<path d="M4.625 8.47917C4.625 21.6764 15.3235 32.375 28.5208 32.375C29.1162 32.375 29.7065 32.3533 30.2911 32.3104C30.9619 32.2612 31.2972 32.2367 31.6026 32.061C31.8555 31.9154 32.0952 31.6574 32.2219 31.3945C32.375 31.0772 32.375 30.7071 32.375 29.9669V25.6236C32.375 25.0011 32.375 24.6898 32.2725 24.4231C32.1821 24.1874 32.0351 23.9775 31.8445 23.812C31.6288 23.6245 31.3362 23.5181 30.7513 23.3054L25.8075 21.5076C25.1269 21.2602 24.7865 21.1364 24.4636 21.1574C24.1789 21.1759 23.9049 21.2731 23.6721 21.4381C23.4082 21.6251 23.222 21.9356 22.8494 22.5567L21.5833 24.6667C17.4981 22.8165 14.1863 19.5004 12.3333 15.4167L14.4433 14.1507C15.0643 13.7781 15.3748 13.5918 15.5619 13.3278C15.7268 13.095 15.8241 12.8211 15.8426 12.5364C15.8636 12.2135 15.7398 11.8732 15.4924 11.1926L13.6946 6.2487C13.4819 5.66371 13.3755 5.37121 13.1881 5.15549C13.0225 4.96492 12.8126 4.81794 12.5769 4.72744C12.3101 4.625 11.9989 4.625 11.3765 4.625H7.0331C6.2929 4.625 5.92279 4.625 5.60547 4.77801C5.34265 4.90475 5.08463 5.14456 4.93904 5.39742C4.76326 5.70273 4.7387 6.03812 4.68958 6.70892C4.64678 7.29341 4.625 7.88374 4.625 8.47917Z" stroke="#080808" stroke-width="3" stroke-linecap="round" stroke-linejoin="round"/>
</svg>
