<svg width="27" height="39" viewBox="0 0 27 39" fill="none" xmlns="http://www.w3.org/2000/svg">
<path d="M24.6048 20.6104V26.9312C24.6048 32.2612 19.6336 36.5833 13.5007 36.5833C7.36773 36.5833 2.39648 32.2612 2.39648 26.9312V20.6104C2.39648 25.9404 7.36773 29.7499 13.5007 29.7499C19.6336 29.7499 24.6048 25.9404 24.6048 20.6104Z" stroke="#080808" stroke-width="3" stroke-linecap="round" stroke-linejoin="round"/>
<path d="M24.6048 12.0688C24.6048 13.6234 24.1777 15.0584 23.4261 16.2884C21.5982 19.2951 17.8398 21.2084 13.5007 21.2084C9.16148 21.2084 5.40315 19.2951 3.57523 16.2884C2.82357 15.0584 2.39648 13.6234 2.39648 12.0688C2.39648 9.40383 3.64355 6.99508 5.6423 5.25258C7.65813 3.493 10.4257 2.41675 13.5007 2.41675C16.5757 2.41675 19.3432 3.493 21.359 5.2355C23.3577 6.99508 24.6048 9.40383 24.6048 12.0688Z" stroke="#080808" stroke-width="3" stroke-linecap="round" stroke-linejoin="round"/>
<path d="M24.6048 12.0688V20.6105C24.6048 25.9405 19.6336 29.7501 13.5007 29.7501C7.36773 29.7501 2.39648 25.9405 2.39648 20.6105V12.0688C2.39648 6.73883 7.36773 2.41675 13.5007 2.41675C16.5757 2.41675 19.3432 3.493 21.359 5.2355C23.3577 6.99508 24.6048 9.40383 24.6048 12.0688Z" stroke="#080808" stroke-width="3" stroke-linecap="round" stroke-linejoin="round"/>
</svg>
