<svg width="60" height="60" viewBox="0 0 60 60" fill="none" xmlns="http://www.w3.org/2000/svg">
<path d="M35 26.25C35 29.7017 29.4035 32.5 22.5 32.5C15.5964 32.5 10 29.7017 10 26.25M35 26.25C35 22.7982 29.4035 20 22.5 20C15.5964 20 10 22.7982 10 26.25M35 26.25V36.25M10 26.25V36.25M35 36.25C35 39.7017 29.4035 42.5 22.5 42.5C15.5964 42.5 10 39.7017 10 36.25M35 36.25V46.25C35 49.7017 29.4035 52.5 22.5 52.5C15.5964 52.5 10 49.7017 10 46.25V36.25M50 13.75C50 10.2982 44.4035 7.5 37.5 7.5C32.5523 7.5 28.276 8.93732 26.25 11.0224M50 13.75C50 16.0634 47.4863 18.0832 43.75 19.1639M50 13.75V35C50 36.8507 47.4863 38.4665 43.75 39.331M50 25C50 26.8917 47.3738 28.538 43.4998 29.3875" stroke="black" stroke-width="3" stroke-linecap="round" stroke-linejoin="round"/>
</svg>
