<svg width="37" height="37" viewBox="0 0 37 37" fill="none" xmlns="http://www.w3.org/2000/svg">
<path d="M18.5 12.3333L20.0417 9.25M10.9455 10.7934C10.8446 11.291 10.7917 11.806 10.7917 12.3333C10.7917 16.5905 14.2428 20.0417 18.5 20.0417C22.7572 20.0417 26.2083 16.5905 26.2083 12.3333C26.2083 11.806 26.1553 11.291 26.0545 10.7934M10.9455 10.7934C11.6591 7.27406 14.7702 4.625 18.5 4.625C22.2298 4.625 25.341 7.27406 26.0545 10.7934M10.9455 10.7934C9.05387 10.803 7.99154 10.8671 7.1503 11.2958C6.28004 11.7392 5.57251 12.4467 5.12909 13.317C4.625 14.3063 4.625 15.6014 4.625 18.1917V24.975C4.625 27.5653 4.625 28.8603 5.12909 29.8497C5.57251 30.72 6.28004 31.4275 7.1503 31.8709C8.13963 32.375 9.43475 32.375 12.025 32.375H24.975C27.5653 32.375 28.8603 32.375 29.8497 31.8709C30.72 31.4275 31.4275 30.72 31.8709 29.8497C32.375 28.8603 32.375 27.5653 32.375 24.975V18.1917C32.375 15.6014 32.375 14.3063 31.8709 13.317C31.4275 12.4467 30.72 11.7392 29.8497 11.2958C29.0085 10.8671 27.9461 10.803 26.0545 10.7934" stroke="#080808" stroke-width="3" stroke-linecap="round" stroke-linejoin="round"/>
</svg>
