<svg width="60" height="60" viewBox="0 0 60 60" fill="none" xmlns="http://www.w3.org/2000/svg">
<path d="M30 20L32.5 15M17.7495 17.5028C17.5859 18.3097 17.5 19.1448 17.5 20C17.5 26.9035 23.0964 32.5 30 32.5C36.9035 32.5 42.5 26.9035 42.5 20C42.5 19.1448 42.414 18.3097 42.2505 17.5028M17.7495 17.5028C18.9066 11.7958 23.9516 7.5 30 7.5C36.0483 7.5 41.0935 11.7958 42.2505 17.5028M17.7495 17.5028C14.682 17.5183 12.9593 17.6224 11.5951 18.3175C10.1839 19.0365 9.0365 20.1839 8.31745 21.5951C7.5 23.1994 7.5 25.2995 7.5 29.5V40.5C7.5 44.7005 7.5 46.8005 8.31745 48.405C9.0365 49.8162 10.1839 50.9635 11.5951 51.6825C13.1994 52.5 15.2996 52.5 19.5 52.5H40.5C44.7005 52.5 46.8005 52.5 48.405 51.6825C49.8162 50.9635 50.9635 49.8162 51.6825 48.405C52.5 46.8005 52.5 44.7005 52.5 40.5V29.5C52.5 25.2995 52.5 23.1994 51.6825 21.5951C50.9635 20.1839 49.8162 19.0365 48.405 18.3175C47.0407 17.6224 45.318 17.5183 42.2505 17.5028" stroke="black" stroke-width="4" stroke-linecap="round" stroke-linejoin="round"/>
</svg>
