<svg width="60" height="60" viewBox="0 0 60 60" fill="none" xmlns="http://www.w3.org/2000/svg">
<path d="M52.5 30C52.5 42.4265 42.4265 52.5 30 52.5C17.5736 52.5 7.5 42.4265 7.5 30C7.5 17.5736 17.5736 7.5 30 7.5C42.4265 7.5 52.5 17.5736 52.5 30Z" stroke="black" stroke-width="4" stroke-linecap="round" stroke-linejoin="round"/>
<path d="M22.5 26.5C22.5 25.0998 22.5 24.3998 22.7725 23.865C23.0122 23.3946 23.3946 23.0122 23.865 22.7725C24.3998 22.5 25.0998 22.5 26.5 22.5H33.5C34.9002 22.5 35.6003 22.5 36.135 22.7725C36.6055 23.0122 36.9877 23.3946 37.2275 23.865C37.5 24.3998 37.5 25.0998 37.5 26.5V33.5C37.5 34.9002 37.5 35.6003 37.2275 36.135C36.9877 36.6055 36.6055 36.9877 36.135 37.2275C35.6003 37.5 34.9002 37.5 33.5 37.5H26.5C25.0998 37.5 24.3998 37.5 23.865 37.2275C23.3946 36.9877 23.0122 36.6055 22.7725 36.135C22.5 35.6003 22.5 34.9002 22.5 33.5V26.5Z" stroke="black" stroke-width="4" stroke-linecap="round" stroke-linejoin="round"/>
</svg>
