<svg width="100" height="50" viewBox="0 0 100 50" fill="none" xmlns="http://www.w3.org/2000/svg">
<path d="M63.2074 12C61.3942 5.23245 60.8977 -1.12119 67 6.39716" stroke="black" stroke-opacity="0.9" stroke-width="2.4" stroke-linecap="round" stroke-linejoin="round"/>
<path d="M75 5.06897C78.1109 -0.72177 78.2728 2.29845 77.8012 9" stroke="black" stroke-opacity="0.9" stroke-width="2.4" stroke-linecap="round" stroke-linejoin="round"/>
<path d="M77.3133 10C79.2661 17.0388 81.4557 27.5316 77 34.0497C84.0368 36.6831 88.9811 38 91.8326 38C96.1102 38 96.028 36.3205 98 38" stroke="black" stroke-opacity="0.9" stroke-width="2.4" stroke-linecap="round" stroke-linejoin="round"/>
<path d="M62 14C58.6079 16.5139 55.138 19.3232 54 23" stroke="black" stroke-opacity="0.9" stroke-width="2.4" stroke-linecap="round" stroke-linejoin="round"/>
<path d="M54 21.9298C34.1034 18.2303 23.4074 25.9706 19.5369 38.0554C1.29835 43.2736 -2.714 46.5886 7.49988 48" stroke="black" stroke-opacity="0.9" stroke-width="2.4" stroke-linecap="round" stroke-linejoin="round"/>
<path d="M40.1146 27.3275C41.0994 26.8822 43.4329 26.8822 44.9183 27.3813C62.8719 33.4141 14.2695 39 39.356 39C41.4688 39 46.0643 38.6193 46.8167 38.6193" stroke="black" stroke-opacity="0.9" stroke-width="2.4" stroke-linecap="round" stroke-linejoin="round"/>
<path d="M75.5672 16C78.1185 22.4546 68.5809 24.8967 68 17.2389" stroke="black" stroke-opacity="0.9" stroke-width="2.4" stroke-linecap="round" stroke-linejoin="round"/>
<path d="M72.7133 21C71.1302 20.2957 72.6218 20.1885 73 20" stroke="black" stroke-opacity="0.9" stroke-width="2.4" stroke-linecap="round" stroke-linejoin="round"/>
<path d="M63 28C64.2576 28.7776 64.6681 30.3584 65.0753 31.732C68.1057 41.9526 64.421 36.3815 77.788 37.2655C79.6588 37.3893 86.5856 38.2761 85.9602 36.6221" stroke="black" stroke-opacity="0.9" stroke-width="2.4" stroke-linecap="round" stroke-linejoin="round"/>
</svg>
