<svg width="61" height="61" viewBox="0 0 61 61" fill="none" xmlns="http://www.w3.org/2000/svg">
<g clip-path="url(#clip0_114_2)">
<path d="M59.1074 39.2388C58.2223 34.1242 54.6583 27.0906 53.2909 24.5218C52.4746 25.5491 51.1946 26.5758 49.3051 27.5059C49.304 27.5064 49.3031 27.507 49.302 27.5074C48.9318 27.7026 48.5351 27.8915 48.1137 28.0738C48.1076 28.0764 48.1013 28.0792 48.0952 28.0818C47.6749 28.2632 47.23 28.4381 46.7621 28.6058C46.7542 28.6088 46.7461 28.6115 46.7383 28.6144C46.5876 28.6683 46.4347 28.7214 46.2793 28.7738C46.2742 28.7754 46.2694 28.7772 46.2644 28.7788C45.9407 28.8877 45.6073 28.9934 45.2642 29.0954C45.2589 29.0971 45.2535 29.0986 45.2483 29.1001C45.0876 29.1478 44.9247 29.1947 44.7599 29.241C44.7426 29.2459 44.7255 29.2506 44.708 29.2555C44.1918 29.3995 43.6559 29.5358 43.1016 29.6642C43.0755 29.6702 43.049 29.6763 43.0226 29.6823C42.8581 29.72 42.692 29.7571 42.5245 29.7934C42.5048 29.7976 42.4852 29.8021 42.4655 29.8063C42.0899 29.8872 41.7068 29.9642 41.3164 30.0377C41.2858 30.0435 41.2549 30.0491 41.2242 30.0547C41.061 30.0851 40.8966 30.1147 40.7309 30.1438C40.6932 30.1505 40.6557 30.157 40.6179 30.1636C40.4279 30.1964 40.2365 30.2286 40.0431 30.2597C40.0399 30.2602 40.0367 30.2608 40.0336 30.2613C39.8302 30.294 39.6249 30.3257 39.4182 30.3563C39.3881 30.3607 39.3577 30.365 39.3275 30.3694C39.1581 30.3942 38.9877 30.4184 38.8164 30.4419C38.7661 30.4488 38.7158 30.4556 38.6652 30.4623C38.4992 30.4846 38.3323 30.5061 38.1644 30.5272C38.1252 30.5322 38.0865 30.5371 38.0472 30.542C37.8378 30.5677 37.6272 30.5926 37.4151 30.6163C37.4023 30.6177 37.3893 30.6191 37.3765 30.6204C37.1835 30.6418 36.9892 30.6622 36.7939 30.682C36.7373 30.6878 36.6803 30.6933 36.6236 30.6988C36.4646 30.7145 36.3049 30.7295 36.1443 30.7439C36.0863 30.7492 36.0285 30.7545 35.9703 30.7596C35.7698 30.7772 35.5684 30.7938 35.3657 30.8097C35.3542 30.8106 35.3427 30.8115 35.3313 30.8125C35.1155 30.829 34.8983 30.8445 34.6802 30.859C34.6229 30.8627 34.5651 30.8663 34.5078 30.8699C34.3461 30.8803 34.1836 30.8901 34.0206 30.8992C33.9523 30.9031 33.8841 30.9068 33.8156 30.9104C33.6461 30.9195 33.4761 30.9278 33.3056 30.9355C33.2536 30.9379 33.2022 30.9406 33.1502 30.9428C32.9296 30.9523 32.7083 30.9607 32.4857 30.9681C32.4401 30.9696 32.3942 30.9707 32.3486 30.9721C32.1707 30.9776 31.9921 30.9825 31.8131 30.9866C31.7412 30.9883 31.6694 30.9898 31.5973 30.9911C31.4345 30.9943 31.2714 30.9969 31.1077 30.999C31.0406 31 30.9736 31.0009 30.9064 31.0015C30.6797 31.0037 30.4524 31.0052 30.224 31.0052C29.9957 31.0052 29.7684 31.0037 29.5416 31.0015C29.4743 31.0009 29.4074 30.9999 29.3404 30.999C29.1766 30.9969 29.0133 30.9942 28.8506 30.9911C28.7786 30.9897 28.7069 30.9881 28.6352 30.9866C28.4558 30.9825 28.2769 30.9776 28.0986 30.9721C28.0533 30.9707 28.0077 30.9696 27.9625 30.9681C27.7399 30.9607 27.5181 30.9522 27.2974 30.9428C27.2457 30.9406 27.1945 30.9379 27.1429 30.9356C26.9723 30.9279 26.8021 30.9196 26.6327 30.9106C26.564 30.9069 26.4956 30.9032 26.4271 30.8993C26.2641 30.8902 26.1017 30.8802 25.9399 30.87C25.8826 30.8664 25.8251 30.8629 25.7679 30.8591C25.5497 30.8446 25.3326 30.8293 25.1168 30.8126C25.1049 30.8118 25.0932 30.8106 25.0812 30.8097C24.8788 30.794 24.6776 30.7772 24.4774 30.7597C24.4195 30.7547 24.3618 30.7493 24.304 30.7441C24.1431 30.7296 23.9831 30.7146 23.8237 30.6989C23.7671 30.6934 23.7104 30.6879 23.654 30.6822C23.4593 30.6625 23.2658 30.6422 23.0734 30.6208C23.0597 30.6192 23.0459 30.6178 23.0322 30.6164C22.8201 30.5927 22.6095 30.5679 22.4003 30.5421C22.3613 30.5373 22.3227 30.5324 22.284 30.5275C22.1157 30.5064 21.9482 30.4847 21.782 30.4624C21.7319 30.4556 21.682 30.449 21.6319 30.4422C21.4604 30.4186 21.29 30.3946 21.1206 30.3696C21.0903 30.3652 21.0597 30.3608 21.0295 30.3564C20.8229 30.3257 20.6176 30.2942 20.4143 30.2615C20.4108 30.261 20.4074 30.2603 20.4039 30.2597C20.2107 30.2286 20.0195 30.1964 19.8296 30.1636C19.792 30.157 19.7547 30.1505 19.7172 30.1439C19.5515 30.1149 19.3871 30.0852 19.2238 30.0549C19.193 30.0491 19.162 30.0435 19.1313 30.0377C18.7407 29.9643 18.3575 29.8872 17.982 29.8063C17.9627 29.8022 17.9436 29.7979 17.9243 29.7938C17.7564 29.7574 17.5901 29.7202 17.4254 29.6825C17.3989 29.6765 17.3724 29.6704 17.346 29.6643C16.7918 29.5359 16.2559 29.3995 15.7396 29.2556C15.7225 29.2508 15.7054 29.246 15.6883 29.2412C15.5235 29.1949 15.3606 29.1482 15.2001 29.1004C15.1947 29.0987 15.1892 29.0971 15.1837 29.0956C14.8404 28.9935 14.507 28.8878 14.1833 28.7789C14.1784 28.7773 14.1739 28.7756 14.1692 28.7741C14.0136 28.7216 13.8603 28.6684 13.7093 28.6145C13.7016 28.6117 13.6938 28.609 13.6861 28.6062C13.2181 28.4384 12.7731 28.2635 12.3527 28.0819C12.3466 28.0793 12.3405 28.0766 12.3344 28.074C11.9129 27.8916 11.5162 27.7027 11.1458 27.5074C11.1449 27.507 11.1439 27.5064 11.1428 27.5059C9.25329 26.5758 7.97314 25.549 7.15681 24.5217C5.78571 27.0977 2.20423 34.1663 1.33259 39.285C1.22478 39.7126 1.16818 40.1467 1.16818 40.5864C1.16021 40.693 1.16407 40.7967 1.17755 40.8981C1.57095 47.4993 14.4259 52.7995 30.2263 52.7995C46.0715 52.7995 58.9531 47.4689 59.2768 40.8417C59.2823 40.7827 59.2838 40.7227 59.2822 40.6621C59.2825 40.6368 59.2844 40.6117 59.2844 40.5864C59.2843 40.1308 59.223 39.6813 59.1074 39.2388Z" fill="#37CC8F"/>
<path d="M59.1073 39.2388C58.2222 34.1242 54.6582 27.0906 53.2909 24.5219C52.8167 25.1185 52.185 25.7146 51.3696 26.292C53.0095 29.5449 55.5427 35.038 56.2698 39.239C56.3853 39.6816 56.4466 40.131 56.4466 40.5865C56.4466 40.6118 56.4447 40.637 56.4444 40.6622C56.446 40.723 56.4445 40.783 56.439 40.8419C56.1249 47.2701 43.9953 52.4782 28.8066 52.785C29.277 52.7945 29.7501 52.7995 30.2261 52.7995C46.0713 52.7995 58.9529 47.4689 59.2766 40.8417C59.2821 40.7827 59.2836 40.7227 59.282 40.6621C59.2823 40.6368 59.2842 40.6117 59.2842 40.5864C59.2842 40.1308 59.2229 39.6813 59.1073 39.2388Z" fill="#2AA86F"/>
<path d="M51.51 17.797C50.8782 17.797 50.2736 17.9125 49.7152 18.1224C49.2563 15.7743 47.1887 14.0022 44.7063 14.0022C44.0885 14.0022 43.4961 14.1121 42.9479 14.3132C42.6188 11.8117 40.4799 9.88025 37.8886 9.88025C36.7349 9.88025 35.6708 10.2635 34.816 10.9087C33.988 9.20736 32.2429 8.03455 30.2236 8.03455C28.2042 8.03455 26.4591 9.20736 25.6311 10.9087C24.7762 10.2632 23.7123 9.88025 22.5586 9.88025C19.9672 9.88025 17.8284 11.8116 17.4992 14.3132C16.951 14.1121 16.3589 14.0022 15.7408 14.0022C13.2584 14.0022 11.1909 15.7743 10.7319 18.1224C10.1734 17.9126 9.5688 17.797 8.93716 17.797C6.11786 17.797 3.07215 23.5332 11.1424 27.5058C15.1297 29.6083 22.1843 31.0056 30.2233 31.0056C38.2624 31.0056 45.317 29.6083 49.3043 27.5058C57.375 23.5332 54.3293 17.797 51.51 17.797Z" fill="#FE9901"/>
<path d="M7.81152 18.0931C7.83918 18.1029 7.86742 18.112 7.89496 18.1224C7.90023 18.0953 7.90691 18.0687 7.91254 18.042C7.87867 18.0582 7.84516 18.0754 7.81152 18.0931Z" fill="#FE9901"/>
<path d="M40.1099 14.3131C40.6581 14.112 41.2503 14.0021 41.8682 14.0021C42.2276 14.0021 42.5778 14.0403 42.9161 14.1109C42.5014 11.7084 40.4092 9.88013 37.888 9.88013C37.3957 9.88013 36.9201 9.95044 36.4697 10.0805C38.3895 10.6356 39.8434 12.2873 40.1099 14.3131Z" fill="#ED8803"/>
<path d="M46.877 18.1224C47.4355 17.9126 48.04 17.797 48.6718 17.797C49.0171 17.797 49.3656 17.8836 49.697 18.0418C49.207 15.7341 47.1596 14.0021 44.7058 14.0021C44.2134 14.0021 43.7376 14.0729 43.2871 14.2031C45.1073 14.7291 46.5091 16.2402 46.877 18.1224Z" fill="#ED8803"/>
<path d="M51.5096 17.797C50.9091 17.797 50.3336 17.9025 49.7982 18.0931C52.1108 19.3147 53.4473 24.0697 46.4667 27.506C42.7159 29.4838 36.2504 30.8373 28.8047 30.9909C29.2739 31.0005 29.7469 31.0058 30.2235 31.0058C38.2627 31.0058 45.3171 29.6084 49.3044 27.506C57.3746 23.5332 54.3289 17.797 51.5096 17.797Z" fill="#ED8803"/>
<path d="M30.2398 42.2867C30.2341 42.2867 30.212 42.2867 30.2064 42.2867C27.6598 42.2867 25.1244 47.6209 26.7628 48.3857C27.4782 48.7196 28.2255 48.6755 28.8403 48.5197C29.2929 48.4051 29.758 48.3485 30.223 48.3499C30.688 48.3485 31.1531 48.405 31.6057 48.5197C32.2206 48.6755 32.9678 48.7195 33.6832 48.3857C35.3216 47.6209 32.7862 42.2867 30.2398 42.2867Z" fill="white"/>
<path d="M24.9014 38.5527C25.4024 39.6655 27.0034 40.6488 28.1162 40.148C29.229 39.647 29.4322 37.8513 28.9312 36.7385C28.4302 35.6257 27.1221 35.1298 26.0093 35.6307C24.8963 36.1318 24.4004 37.4399 24.9014 38.5527Z" fill="white"/>
<path d="M21.8487 43.9571C22.7192 44.535 24.5242 44.7099 25.1021 43.8393C25.6801 42.9687 24.8124 41.3823 23.9419 40.8044C23.0713 40.2264 21.8969 40.4636 21.319 41.3342C20.741 42.2048 20.9779 43.379 21.8487 43.9571Z" fill="white"/>
<path d="M35.5444 38.5527C35.0434 39.6655 33.4424 40.6488 32.3296 40.148C31.2168 39.647 31.0136 37.8513 31.5146 36.7385C32.0156 35.6257 33.3237 35.1298 34.4365 35.6307C35.5495 36.1318 36.0454 37.4399 35.5444 38.5527Z" fill="white"/>
<path d="M38.5978 43.9571C37.7272 44.535 35.9224 44.7099 35.3443 43.8393C34.7662 42.9687 35.6339 41.3823 36.5046 40.8044C37.3752 40.2264 38.5495 40.4636 39.1275 41.3342C39.7054 42.2048 39.4684 43.379 38.5978 43.9571Z" fill="white"/>
<path d="M27.8646 18.0514C27.8646 15.871 26.0907 14.0972 23.9103 14.0972C21.7299 14.0972 19.9561 15.871 19.9561 18.0514C19.9561 18.5704 20.3769 18.9912 20.8958 18.9912C21.4147 18.9912 21.8355 18.5703 21.8355 18.0514C21.8355 16.9074 22.7662 15.9766 23.9103 15.9766C25.0543 15.9766 25.9851 16.9073 25.9851 18.0514C25.9851 18.5704 26.4059 18.9912 26.9248 18.9912C27.4439 18.9912 27.8646 18.5704 27.8646 18.0514Z" fill="black"/>
<path d="M34.4615 18.0514C34.4615 16.9074 35.3922 15.9766 36.5364 15.9766C37.6804 15.9766 38.6112 16.9073 38.6112 18.0514C38.6112 18.5704 39.0318 18.9912 39.5509 18.9912C40.0701 18.9912 40.4907 18.5703 40.4907 18.0514C40.4907 15.871 38.7169 14.0972 36.5364 14.0972C34.3559 14.0972 32.582 15.871 32.582 18.0514C32.582 18.5704 33.0026 18.9912 33.5218 18.9912C34.0408 18.9912 34.4615 18.5704 34.4615 18.0514Z" fill="black"/>
<path d="M27.2093 25.4509C27.7283 25.4509 28.149 25.0301 28.149 24.5111C28.149 23.3672 29.0797 22.4363 30.2238 22.4363C31.3679 22.4363 32.2987 23.367 32.2987 24.5111C32.2987 25.0302 32.7193 25.4509 33.2384 25.4509C33.7576 25.4509 34.1782 25.0301 34.1782 24.5111C34.1782 22.3308 32.4043 20.5569 30.2238 20.5569C28.0433 20.5569 26.2695 22.3308 26.2695 24.5111C26.2694 25.0302 26.6902 25.4509 27.2093 25.4509Z" fill="black"/>
<path d="M15.924 20.5569C13.7436 20.5569 11.9697 22.3308 11.9697 24.5111C11.9697 25.0302 12.3905 25.4509 12.9095 25.4509C13.4285 25.4509 13.8492 25.0301 13.8492 24.5111C13.8492 23.3672 14.7799 22.4363 15.924 22.4363C17.0681 22.4363 17.9988 23.367 17.9988 24.5111C17.9988 25.0302 18.4196 25.4509 18.9385 25.4509C19.4574 25.4509 19.8782 25.0301 19.8782 24.5111C19.8782 22.3308 18.1044 20.5569 15.924 20.5569Z" fill="black"/>
<path d="M42.4488 24.5111C42.4488 23.3672 43.3795 22.4363 44.5236 22.4363C45.6677 22.4363 46.5984 23.367 46.5984 24.5111C46.5984 25.0302 47.019 25.4509 47.5381 25.4509C48.0573 25.4509 48.4779 25.0301 48.4779 24.5111C48.4779 22.3308 46.7041 20.5569 44.5236 20.5569C42.3431 20.5569 40.5693 22.3308 40.5693 24.5111C40.5693 25.0302 40.9899 25.4509 41.5091 25.4509C42.0282 25.4509 42.4488 25.0302 42.4488 24.5111Z" fill="black"/>
<path d="M30.2068 41.347C27.8413 41.347 25.8714 44.3284 25.4141 46.3892C24.9779 48.355 25.9342 49.0358 26.3658 49.2372C27.1663 49.6108 28.0983 49.6772 29.0715 49.4308C29.441 49.3371 29.8229 49.2898 30.2066 49.2898H30.2406C30.6243 49.2898 31.0062 49.3371 31.3756 49.4308C31.7605 49.5283 32.1414 49.5776 32.5078 49.5776C33.068 49.5776 33.5974 49.4631 34.0814 49.2372C34.5128 49.0358 35.4694 48.3552 35.0332 46.3892C34.5759 44.3283 32.6061 41.3469 30.2406 41.3469H30.2068V41.347ZM32.544 45.2054C33.2431 46.402 33.3218 47.315 33.2388 47.5554C33.0158 47.6515 32.7761 47.6983 32.5078 47.6983C32.2968 47.6983 32.0712 47.6681 31.8369 47.609C31.3167 47.4772 30.7797 47.4104 30.2405 47.4104H30.2065C29.6673 47.4104 29.1302 47.4772 28.61 47.609C28.0825 47.7427 27.6058 47.7261 27.208 47.5554C27.125 47.315 27.2039 46.402 27.9029 45.2054C28.5945 44.0218 29.5202 43.2267 30.2066 43.2267H30.2401C30.9266 43.2265 31.8525 44.0218 32.544 45.2054Z" fill="black"/>
<path d="M26.9156 34.4957C26.4685 34.4957 26.034 34.5894 25.624 34.7739C24.0405 35.4868 23.3323 37.3551 24.045 38.9385C24.6214 40.2189 26.1223 41.2219 27.4617 41.2221C27.8323 41.2221 28.1824 41.1491 28.5023 41.005C29.3001 40.646 29.8503 39.8817 30.0516 38.8532C30.2151 38.0169 30.1168 37.0821 29.7886 36.3528C29.2808 35.2248 28.153 34.4957 26.9156 34.4957ZM27.7309 39.2912C27.6552 39.3253 27.5646 39.3425 27.4619 39.3425C26.8587 39.3425 26.031 38.7712 25.759 38.167C25.4715 37.5284 25.7571 36.7751 26.3957 36.4877C26.5615 36.413 26.7364 36.3753 26.9156 36.3753C27.415 36.3753 27.8699 36.6693 28.0748 37.1244C28.4197 37.8904 28.2333 39.065 27.7309 39.2912Z" fill="black"/>
<path d="M20.536 40.8142C20.1177 41.4443 19.9697 42.1998 20.1194 42.9413C20.2692 43.6827 20.6988 44.3216 21.3289 44.74C21.9337 45.1416 22.7911 45.3812 23.6222 45.3812H23.6223C24.6436 45.3812 25.4471 45.0182 25.8849 44.3589C26.8247 42.9434 25.6505 40.8107 24.4615 40.0212C23.9956 39.7119 23.4546 39.5485 22.8969 39.5485C21.9449 39.5486 21.0622 40.0217 20.536 40.8142ZM24.3193 43.3196C24.2724 43.3901 24.0419 43.502 23.6224 43.502C23.1747 43.502 22.6591 43.3674 22.3686 43.1744C22.1567 43.0336 22.0121 42.8187 21.9617 42.5694C21.9114 42.3202 21.9612 42.066 22.1018 41.8541C22.2789 41.5875 22.576 41.4284 22.897 41.4284C23.0837 41.4284 23.2651 41.4833 23.422 41.5875C24.0469 42.0021 24.488 43.0654 24.3193 43.3196Z" fill="black"/>
<path d="M34.8229 34.7739C34.4128 34.5894 33.9783 34.4957 33.5311 34.4957C32.2937 34.4957 31.1659 35.2246 30.658 36.3528C30.3298 37.0821 30.2314 38.0166 30.3951 38.8532C30.5962 39.8817 31.1464 40.646 31.9442 41.005C32.2642 41.1491 32.6143 41.2221 32.9848 41.2221C34.3243 41.2221 35.8252 40.2192 36.4016 38.9385C37.1147 37.355 36.4064 35.4868 34.8229 34.7739ZM34.688 38.1671C34.416 38.7713 33.5884 39.3426 32.985 39.3426C32.8823 39.3426 32.7917 39.3253 32.7161 39.2913C32.3994 39.1487 32.2776 38.6852 32.2398 38.4925C32.1495 38.0307 32.2002 37.5065 32.3721 37.1246C32.577 36.6697 33.0321 36.3755 33.5314 36.3755C33.7108 36.3755 33.8856 36.4134 34.0513 36.4879C34.3607 36.6271 34.5972 36.8785 34.7174 37.1956C34.8375 37.5127 34.8272 37.8577 34.688 38.1671Z" fill="black"/>
<path d="M35.9855 40.0214C35.3949 40.4137 34.8475 41.0914 34.5214 41.8346C34.1016 42.7908 34.1162 43.6875 34.5622 44.3593C34.9999 45.0184 35.8034 45.3815 36.825 45.3815C37.6561 45.3815 38.5134 45.1418 39.1183 44.7401C40.4193 43.8763 40.7751 42.1152 39.9112 40.8143C39.3849 40.0218 38.5023 39.5487 37.5501 39.5487C36.9925 39.5486 36.4515 39.7121 35.9855 40.0214ZM38.3455 41.8539C38.6359 42.2915 38.5162 42.8836 38.0787 43.1743C37.7881 43.3673 37.2725 43.5019 36.825 43.5019C36.4053 43.5019 36.1749 43.39 36.1279 43.3196C36.0801 43.2474 36.0688 42.9855 36.2424 42.5898C36.4489 42.1191 36.7843 41.7471 37.025 41.5874C37.1818 41.4832 37.3633 41.4282 37.55 41.4282C37.871 41.428 38.1684 41.5872 38.3455 41.8539Z" fill="black"/>
<path d="M60.0266 39.0408C59.1676 34.1389 55.9913 27.649 54.3945 24.6003C54.4376 24.536 54.481 24.4718 54.5215 24.4068C55.5757 22.7148 55.5315 21.219 55.3086 20.2622C54.8569 18.3211 53.2237 16.8575 51.5101 16.8575C51.1215 16.8575 50.7372 16.8942 50.36 16.9672C49.4853 14.655 47.247 13.0626 44.7063 13.0626C44.3493 13.0626 43.9963 13.0936 43.649 13.1549C42.8659 10.6919 40.5505 8.94067 37.8887 8.94067C36.9152 8.94067 35.9776 9.16813 35.1299 9.60501C34.0061 8.03552 32.2047 7.09497 30.2237 7.09497C28.2426 7.09497 26.4411 8.0354 25.3175 9.60489C24.4699 9.16813 23.5322 8.94056 22.5587 8.94056C19.897 8.94056 17.5814 10.6918 16.7985 13.1547C16.4512 13.0934 16.0981 13.0625 15.7412 13.0625C13.2004 13.0625 10.9622 14.6549 10.0875 16.9671C9.71036 16.8942 9.32599 16.8574 8.93763 16.8574C7.22388 16.8574 5.59076 18.3212 5.139 20.262C4.91622 21.2189 4.87193 22.7147 5.92626 24.4067C5.96669 24.4716 6.01005 24.5356 6.05294 24.6C5.14919 26.3261 3.69103 29.2488 2.45693 32.357C2.26544 32.8394 2.50111 33.3855 2.98357 33.5771C3.09736 33.6222 3.21466 33.6437 3.33021 33.6437C3.70404 33.6437 4.05759 33.4191 4.20396 33.0505C5.26322 30.3825 6.49497 27.8485 7.37798 26.1279C7.48357 26.2252 7.59279 26.3216 7.70517 26.417C7.70892 26.4202 7.71267 26.4235 7.71642 26.4267C7.71841 26.4284 7.72052 26.4302 7.72263 26.4318C7.8022 26.499 7.88353 26.5657 7.9665 26.6318C7.97037 26.6349 7.97412 26.6379 7.97798 26.641C7.98396 26.6458 7.99017 26.6505 7.99615 26.6552C8.19619 26.8136 8.4056 26.9689 8.62462 27.1214C8.6422 27.1336 8.65931 27.1459 8.67701 27.1579C8.68228 27.1616 8.68767 27.1651 8.69294 27.1687C8.76794 27.2202 8.84412 27.2714 8.92134 27.3221C8.94208 27.3359 8.96283 27.3498 8.98404 27.3636C9.00021 27.3741 9.01685 27.3843 9.03314 27.3949C9.10404 27.4406 9.17576 27.4861 9.24853 27.5313C9.26716 27.543 9.28533 27.5546 9.3049 27.5667C9.34415 27.5907 9.3847 27.6152 9.42654 27.6402C9.48197 27.6734 9.5374 27.7067 9.59365 27.7397C9.60876 27.7487 9.62365 27.7576 9.63912 27.7666C9.68212 27.7916 9.72665 27.8165 9.77095 27.8415C9.83212 27.8762 9.89271 27.911 9.95505 27.9454C9.96583 27.9514 9.97626 27.9575 9.98716 27.9635C10.0577 28.0023 10.1311 28.0413 10.2109 28.0835C10.2506 28.1046 10.2895 28.1258 10.3298 28.1469C10.3368 28.1505 10.3435 28.1543 10.3506 28.1579C10.4631 28.2164 10.5781 28.2747 10.6951 28.3324C10.7022 28.3359 10.7092 28.3397 10.7163 28.3432C10.717 28.3435 10.7179 28.344 10.7188 28.3445C10.8245 28.4001 10.9397 28.4586 11.0686 28.5224C14.2165 30.0846 18.8386 31.1847 24.0955 31.6686C24.101 31.6691 24.1064 31.6698 24.1119 31.6702C25.3845 31.8071 26.6527 31.9016 27.8815 31.951C30.5145 32.0573 33.1807 31.9783 35.8063 31.7164C35.916 31.7073 36.0219 31.6972 36.1299 31.6877C36.3464 31.6685 36.5622 31.6487 36.777 31.6275C36.9892 31.6065 37.1995 31.5848 37.4074 31.5621C37.4943 31.5526 37.5812 31.5429 37.6679 31.533C37.9636 31.4993 38.2574 31.4643 38.5485 31.4265C38.6411 31.4144 38.7287 31.3888 38.81 31.3525C38.8133 31.351 38.8168 31.3501 38.8201 31.3486C38.8377 31.3406 38.8542 31.3311 38.871 31.322C38.8811 31.3166 38.8917 31.3118 38.9017 31.3059C38.9156 31.2977 38.9285 31.2884 38.9418 31.2798C38.9539 31.2719 38.9665 31.2647 38.9779 31.2562C38.9908 31.2468 39.0028 31.2364 39.0152 31.2265C39.0263 31.2174 39.0381 31.209 39.0488 31.1996C39.0593 31.1905 39.0686 31.1802 39.0786 31.1706C39.0902 31.1593 39.1024 31.1485 39.1135 31.1366C39.1223 31.1273 39.1299 31.117 39.1384 31.1074C39.1496 31.0943 39.1615 31.0815 39.172 31.0678C39.18 31.0572 39.187 31.0461 39.1947 31.0352C39.2044 31.0214 39.2147 31.008 39.2236 30.9937C39.2325 30.9795 39.2401 30.9647 39.2483 30.95C39.2549 30.9384 39.262 30.927 39.268 30.9151C39.2792 30.8927 39.2891 30.8696 39.2985 30.8463C39.3003 30.8415 39.3028 30.837 39.3045 30.8322C39.3125 30.8115 39.3191 30.7902 39.3256 30.7687C39.328 30.761 39.3311 30.7535 39.3333 30.7455C39.366 30.6279 39.3761 30.5018 39.3593 30.3731C39.3558 30.3466 39.3506 30.3208 39.3451 30.2952C39.3439 30.2897 39.3433 30.284 39.342 30.2786C39.3404 30.2715 39.3378 30.2647 39.3361 30.2577C39.2269 29.8361 38.8391 29.5427 38.402 29.555C38.3702 29.5558 38.3383 29.5584 38.3061 29.5625C38.3028 29.5629 38.2994 29.5632 38.296 29.5638C38.0178 29.5999 37.7374 29.6332 37.456 29.6654C37.3693 29.6752 37.2824 29.685 37.1951 29.6946C36.9978 29.7163 36.7993 29.7364 36.6007 29.7562C36.379 29.778 36.154 29.7991 35.9259 29.819C34.0765 29.9818 32.1682 30.0659 30.224 30.0659C28.2947 30.0659 26.4084 29.985 24.6016 29.8302C24.5028 29.82 24.4045 29.8114 24.3056 29.8008C24.3007 29.8003 24.2959 29.7997 24.291 29.7992C19.3122 29.3422 14.9682 28.3175 12.056 26.9125L12.0052 26.8885C11.9607 26.8668 11.9171 26.845 11.8733 26.8232C11.777 26.775 11.6806 26.7268 11.5872 26.6777C11.5854 26.6766 11.5835 26.6758 11.5816 26.6748C11.5776 26.6727 11.5736 26.6707 11.5694 26.6687C11.5656 26.6667 11.5618 26.6647 11.5581 26.6628C11.5477 26.6578 11.538 26.6525 11.5277 26.6476C11.4289 26.5987 11.3319 26.5496 11.2367 26.5003C11.1545 26.4575 11.0737 26.4141 10.9936 26.3707C10.9759 26.3613 10.9582 26.3519 10.9408 26.3423C7.99099 24.7275 6.51443 22.6438 6.96958 20.6881C7.25013 19.4829 8.20954 18.7368 8.93775 18.7368C9.44083 18.7368 9.93349 18.826 10.402 19.0022C10.6609 19.0995 10.9493 19.0779 11.1907 18.943C11.4321 18.8083 11.6019 18.5741 11.655 18.3027C12.0355 16.3554 13.7542 14.942 15.7415 14.942C16.2351 14.942 16.7177 15.0273 17.176 15.1954C17.4442 15.2938 17.7423 15.265 17.9863 15.1173C18.2305 14.9695 18.3942 14.7188 18.4316 14.4358C18.7027 12.3745 20.4772 10.8201 22.5592 10.8201C23.4719 10.8201 24.3386 11.1102 25.0654 11.659C25.2897 11.8283 25.5778 11.8882 25.8511 11.8227C26.1242 11.7572 26.3538 11.5727 26.4767 11.32C27.1803 9.87349 28.6162 8.97466 30.2237 8.97466C31.831 8.97466 33.267 9.87349 33.971 11.3202C34.0939 11.5728 34.3235 11.7573 34.5967 11.8228C34.8701 11.8882 35.1579 11.8283 35.3823 11.6591C36.1093 11.1104 36.976 10.8202 37.8887 10.8202C39.9705 10.8202 41.7451 12.3746 42.0163 14.4359C42.0535 14.7188 42.2172 14.9696 42.4615 15.1174C42.7057 15.2653 43.0038 15.294 43.2718 15.1957C43.73 15.0275 44.2128 14.9422 44.7063 14.9422C46.6936 14.9422 48.4124 16.3556 48.7929 18.3029C48.8458 18.5743 49.0156 18.8084 49.2569 18.9432C49.4983 19.0781 49.787 19.0995 50.0456 19.0024C50.5141 18.8264 51.0068 18.7371 51.51 18.7371C52.2381 18.7371 53.1975 19.4831 53.478 20.6885C53.9641 22.7761 52.2487 25.0094 48.8897 26.6631C48.8818 26.6669 48.8741 26.6709 48.8663 26.675C48.3079 26.9695 47.6808 27.2502 46.9949 27.5152C46.962 27.528 46.9297 27.5409 46.8967 27.5534C45.3206 28.1542 43.4354 28.6719 41.3311 29.0776C40.8214 29.1758 40.4879 29.6687 40.5862 30.1783C40.6793 30.6607 41.1254 30.985 41.6052 30.9347C41.6378 30.9318 41.6704 30.9275 41.7034 30.9212C44.0293 30.475 46.1045 29.893 47.8712 29.1907C48.2836 29.0441 48.6603 28.8991 49.0226 28.7477C50.0942 28.2997 51.1328 27.6065 51.8223 27.123C51.8237 27.1222 51.8334 27.1154 51.8348 27.1145C51.837 27.1129 51.8477 27.1056 51.8498 27.1039L51.8699 27.09C51.8827 27.0808 51.9019 27.0672 51.9248 27.0506C52.0854 26.9367 52.2402 26.821 52.3902 26.7037C52.3998 26.6962 52.4106 26.6881 52.4203 26.6806C52.6091 26.5359 52.8481 26.3486 53.0825 26.1533C54.7122 29.3285 57.4331 35.0785 58.1808 39.3991C58.1851 39.4251 58.1908 39.451 58.1974 39.4765C58.2945 39.8484 58.3439 40.2218 58.3435 40.588C58.3427 40.6081 58.3419 40.6283 58.3417 40.6484C58.3414 40.6612 58.3415 40.674 58.3419 40.6866C58.3425 40.7127 58.342 40.7355 58.3401 40.7544C58.3388 40.7682 58.3379 40.782 58.3372 40.7959C58.2013 43.5792 55.2399 46.3643 50.2128 48.437C44.8595 50.6442 37.7611 51.8597 30.2253 51.8597C22.7123 51.8597 15.629 50.6505 10.2802 48.4548C5.25642 46.3924 2.28009 43.6176 2.11474 40.842C2.11333 40.819 2.11111 40.7961 2.10806 40.7731C2.10267 40.7329 2.10138 40.6949 2.10431 40.6566C2.10607 40.6332 2.10689 40.6097 2.10689 40.5862C2.10689 40.2329 2.15259 39.8722 2.24271 39.5144C2.24857 39.4907 2.25372 39.4668 2.25783 39.4426C2.43361 38.4106 2.73982 37.2187 3.16826 35.9C3.32857 35.4064 3.05833 34.8763 2.56486 34.7159C2.07103 34.5555 1.54111 34.8258 1.3808 35.3195C0.929506 36.7101 0.603373 37.9789 0.411537 39.092C0.29224 39.5772 0.230483 40.0688 0.227787 40.5542C0.21935 40.6972 0.223803 40.8422 0.240795 40.9861C0.471889 44.5501 3.78208 47.819 9.56681 50.1936C15.1367 52.4802 22.4734 53.7392 30.2256 53.7392C38.0014 53.7392 45.3541 52.4732 50.9294 50.1746C56.7313 47.7826 60.0274 44.4915 60.2137 40.9064C60.2202 40.8296 60.2226 40.7495 60.2215 40.6675C60.2227 40.6405 60.2236 40.6134 60.2236 40.5862C60.2238 40.0746 60.1575 39.5547 60.0266 39.0408Z" fill="black"/>
</g>
<defs>
<clipPath id="clip0_114_2">
<rect width="60" height="60" fill="white" transform="translate(0.223633 0.417114)"/>
</clipPath>
</defs>
</svg>
