<svg width="372" height="370" viewBox="0 0 372 370" fill="none" xmlns="http://www.w3.org/2000/svg">
<path d="M106.601 181.416L86.8969 209.975L34.4681 182.803C30.69 180.895 26.0981 182.341 24.1219 186.041C22.9594 188.237 22.9594 190.897 24.1219 193.094L54.9863 252.525C57.0206 256.456 59.6944 260.098 62.8331 263.278L135.722 336.469C140.256 341.036 147.521 341.152 152.229 336.816L192.626 299.527L246.741 337.856C248.833 339.359 251.274 340.053 253.657 340.053C257.203 340.053 260.749 338.434 263.074 335.37L297.077 290.912C300.158 286.923 301.843 281.952 301.843 276.922V159.562L342.066 100.652C344.797 96.6625 346.425 91.9797 346.774 87.1812L348.692 61.1078C349.099 55.6734 347.064 50.4125 343.054 46.6547L328.697 33.1265C327.244 31.6812 325.384 30.6984 323.349 30.2359C319.223 29.3109 314.979 30.6984 312.248 33.8781L296.612 51.9156L289.056 52.3781L270.398 40.2953C266.213 37.6359 261.388 36.1906 256.447 36.1906H221.282C215.818 36.1906 210.645 38.6187 207.216 42.839L186.349 68.45C183.501 71.9765 181.234 75.9078 179.723 80.1859L154.613 150.486C153.741 152.972 153.857 155.689 155.019 158.059C156.182 160.43 158.158 162.222 160.657 163.147C161.704 163.552 162.866 163.725 163.971 163.725H186.174V174.073H120.493C114.913 174.131 109.682 176.848 106.543 181.473L106.601 181.416ZM40.2225 198.817L80.3287 219.572L63.6469 243.795L40.2806 198.817H40.2225ZM197.916 173.9L250.228 236.742L198.032 279.755L197.916 179.797V173.9ZM290.276 266.689L204.426 163.609H290.276V266.689ZM253.541 328.375L201.752 291.664L257.668 245.645L288.416 282.53C288.184 282.934 288.242 283.512 287.951 283.859L253.599 328.375H253.541ZM337.067 61.05L335.498 82.4406L305.389 62.9578L337.067 61.05ZM329.627 49.8922L312.771 50.9328L320.85 41.625L329.627 49.8922ZM216.225 50.1234C217.446 48.6203 219.306 47.7531 221.282 47.7531H256.447C259.179 47.7531 261.795 48.5047 264.062 50.0078L332.475 94.2343L294.694 149.561L195.474 75.6765L216.225 50.1812V50.1234ZM166.354 152.22L190.011 85.9672L278.651 151.989L166.354 152.162V152.22ZM186.291 185.636L186.407 289.583L144.034 328.375L71.145 255.184C71.145 255.184 70.7381 254.548 70.5056 254.317L116.192 188.006C117.18 186.561 118.807 185.694 120.551 185.694H186.233L186.291 185.636Z" fill="black"/>
</svg>
