<svg width="46" height="36" viewBox="0 0 46 36" fill="none" xmlns="http://www.w3.org/2000/svg">
<path d="M17.3084 9.95048C19.823 9.0889 21.1638 6.35179 20.3021 3.83716C19.4416 1.32332 16.705 -0.0186938 14.1899 0.843063C11.6752 1.70396 10.3344 4.44089 11.1953 6.95561C12.0566 9.47101 14.7933 10.8107 17.3084 9.95048Z" fill="black"/>
<path d="M9.61225 17.4422V17.443C11.0568 15.2108 10.4178 12.2301 8.18688 10.7861C5.9551 9.34281 2.97509 9.98053 1.53062 12.2119V12.2127C0.0870062 14.4441 0.725931 17.4241 2.95693 18.8673C5.18863 20.3121 8.1682 19.6736 9.61225 17.4422Z" fill="black"/>
<path d="M28.4805 9.95056C30.9955 10.8108 33.7321 9.47109 34.5934 6.9556C35.4543 4.44097 34.1135 1.70395 31.5989 0.843054C29.0838 -0.0187026 26.3472 1.32339 25.4867 3.83715C24.625 6.35186 25.9658 9.08898 28.4805 9.95056Z" fill="black"/>
<path d="M22.8943 12.3164C15.2871 12.3164 6.89329 22.8498 9.32326 30.3447C11.6694 37.5809 18.9993 34.5986 22.8943 34.5986C26.7894 34.5986 34.1192 37.5809 36.4653 30.3447C38.8954 22.8498 30.5016 12.3164 22.8943 12.3164Z" fill="black"/>
<path d="M44.2583 12.2127V12.2119C42.8139 9.98053 39.834 9.34281 37.6022 10.7861C35.3712 12.2301 34.7323 15.2108 36.1767 17.443V17.4422C37.6207 19.6736 40.6003 20.3121 42.8321 18.8673C45.063 17.4241 45.702 14.4442 44.2583 12.2127Z" fill="black"/>
</svg>
