<svg xmlns="http://www.w3.org/2000/svg" version="1.1" xmlns:xlink="http://www.w3.org/1999/xlink" xmlns:svgjs="http://svgjs.dev/svgjs" width="1500" height="443" viewBox="0 0 1500 443"><g transform="matrix(1,0,0,1,-0.9090909090909918,-1.8878894251044187)"><svg viewBox="0 0 396 117" data-background-color="#ffffff" preserveAspectRatio="xMidYMid meet" height="443" width="1500" xmlns="http://www.w3.org/2000/svg" xmlns:xlink="http://www.w3.org/1999/xlink"><g id="tight-bounds" transform="matrix(1,0,0,1,0.2400000000000091,0.498607365095296)"><svg viewBox="0 0 395.52 116.00252868112152" height="116.00252868112152" width="395.52"><g><svg viewBox="0 0 608.6463403079631 178.5106051482457" height="116.00252868112152" width="395.52"><g transform="matrix(1,0,0,1,213.12634030796315,52.597896527216946)"><svg viewBox="0 0 395.52 73.31481209381181" height="73.31481209381181" width="395.52"><g id="textblocktransform"><svg viewBox="0 0 395.52 73.31481209381181" height="73.31481209381181" width="395.52" id="textblock"><g><svg viewBox="0 0 395.52 73.31481209381181" height="73.31481209381181" width="395.52"><g transform="matrix(1,0,0,1,0,0)"><svg width="395.52" viewBox="3.16 -36.36 251.33 46.59" height="73.31481209381181" data-palette-color="#fe5200"><path d="M10.85 0L3.16 0 3.16-36.36 17.51-36.36Q21.64-36.36 24.56-34.79 27.47-33.22 29-30.44 30.54-27.66 30.54-24.04L30.54-24.04Q30.54-20.42 28.98-17.65 27.41-14.88 24.46-13.33 21.5-11.79 17.31-11.79L17.31-11.79 8.17-11.79 8.17-17.95 16.07-17.95Q18.29-17.95 19.74-18.72 21.18-19.5 21.9-20.87 22.62-22.25 22.62-24.04L22.62-24.04Q22.62-25.85 21.9-27.21 21.18-28.57 19.73-29.32 18.27-30.08 16.03-30.08L16.03-30.08 10.85-30.08 10.85 0ZM43.18 0.51L43.18 0.51Q40.57 0.51 38.53-0.4 36.49-1.31 35.3-3.12 34.12-4.92 34.12-7.62L34.12-7.62Q34.12-9.89 34.96-11.43 35.79-12.98 37.23-13.92 38.67-14.86 40.51-15.34 42.34-15.82 44.37-16.02L44.37-16.02Q46.75-16.26 48.2-16.49 49.66-16.71 50.32-17.15 50.97-17.6 50.97-18.47L50.97-18.47 50.97-18.57Q50.97-20.26 49.92-21.18 48.86-22.11 46.93-22.11L46.93-22.11Q44.88-22.11 43.68-21.21 42.47-20.31 42.08-18.96L42.08-18.96 35.08-19.53Q35.62-22.02 37.18-23.84 38.74-25.66 41.22-26.64 43.69-27.63 46.96-27.63L46.96-27.63Q49.23-27.63 51.32-27.1 53.41-26.56 55.03-25.44 56.66-24.33 57.6-22.58 58.54-20.83 58.54-18.39L58.54-18.39 58.54 0 51.36 0 51.36-3.78 51.15-3.78Q50.49-2.5 49.39-1.54 48.29-0.57 46.75-0.03 45.2 0.51 43.18 0.51ZM45.35-4.71L45.35-4.71Q47.01-4.71 48.29-5.37 49.57-6.04 50.3-7.17 51.03-8.31 51.03-9.75L51.03-9.75 51.03-12.64Q50.67-12.41 50.06-12.22 49.45-12.04 48.68-11.89 47.92-11.74 47.16-11.62 46.39-11.51 45.77-11.42L45.77-11.42Q44.44-11.22 43.45-10.8 42.45-10.37 41.9-9.65 41.35-8.93 41.35-7.87L41.35-7.87Q41.35-6.32 42.48-5.51 43.61-4.71 45.35-4.71ZM77.78 0L69.79 0 62.37-27.27 70.02-27.27 74.25-8.95 74.5-8.95 78.9-27.27 86.41-27.27 90.89-9.06 91.12-9.06 95.27-27.27 102.91-27.27 95.5 0 87.5 0 82.81-17.15 82.47-17.15 77.78 0ZM105-27.27L121.42-27.27 121.42-21.59 105-21.59 105-27.27ZM108.73-7.39L108.73-33.81 116.29-33.81 116.29-8.38Q116.29-7.33 116.61-6.76 116.93-6.18 117.51-5.95 118.09-5.72 118.85-5.72L118.85-5.72Q119.38-5.72 119.91-5.81 120.45-5.91 120.73-5.97L120.73-5.97 121.92-0.34Q121.35-0.16 120.32 0.08 119.29 0.32 117.82 0.37L117.82 0.37Q115.08 0.48 113.03-0.36 110.98-1.19 109.85-2.95 108.71-4.71 108.73-7.39L108.73-7.39ZM133.9-15.77L133.9-15.77 133.9 0 126.34 0 126.34-36.36 133.69-36.36 133.69-22.46 134.01-22.46Q134.93-24.88 136.99-26.25 139.05-27.63 142.16-27.63L142.16-27.63Q145-27.63 147.12-26.39 149.24-25.16 150.43-22.86 151.61-20.56 151.59-17.37L151.59-17.37 151.59 0 144.02 0 144.02-16.02Q144.04-18.54 142.75-19.94 141.47-21.34 139.16-21.34L139.16-21.34Q137.61-21.34 136.43-20.69 135.25-20.03 134.59-18.78 133.92-17.52 133.9-15.77ZM170.92 0L162.93 0 155.51-27.27 163.16-27.27 167.39-8.95 167.64-8.95 172.04-27.27 179.55-27.27 184.03-9.06 184.26-9.06 188.41-27.27 196.05-27.27 188.64 0 180.63 0 175.95-17.15 175.61-17.15 170.92 0ZM207.83 0.51L207.83 0.51Q205.22 0.51 203.18-0.4 201.14-1.31 199.96-3.12 198.78-4.92 198.78-7.62L198.78-7.62Q198.78-9.89 199.61-11.43 200.45-12.98 201.88-13.92 203.32-14.86 205.16-15.34 207-15.82 209.02-16.02L209.02-16.02Q211.4-16.26 212.86-16.49 214.31-16.71 214.97-17.15 215.63-17.6 215.63-18.47L215.63-18.47 215.63-18.57Q215.63-20.26 214.57-21.18 213.51-22.11 211.58-22.11L211.58-22.11Q209.54-22.11 208.33-21.21 207.12-20.31 206.73-18.96L206.73-18.96 199.74-19.53Q200.27-22.02 201.83-23.84 203.39-25.66 205.87-26.64 208.35-27.63 211.61-27.63L211.61-27.63Q213.89-27.63 215.97-27.1 218.06-26.56 219.68-25.44 221.31-24.33 222.25-22.58 223.19-20.83 223.19-18.39L223.19-18.39 223.19 0 216.02 0 216.02-3.78 215.81-3.78Q215.15-2.5 214.05-1.54 212.95-0.57 211.4-0.03 209.86 0.51 207.83 0.51ZM210-4.71L210-4.71Q211.67-4.71 212.95-5.37 214.23-6.04 214.95-7.17 215.68-8.31 215.68-9.75L215.68-9.75 215.68-12.64Q215.33-12.41 214.71-12.22 214.1-12.04 213.34-11.89 212.57-11.74 211.81-11.62 211.05-11.51 210.43-11.42L210.43-11.42Q209.09-11.22 208.1-10.8 207.11-10.37 206.55-9.65 206-8.93 206-7.87L206-7.87Q206-6.32 207.13-5.51 208.26-4.71 210-4.71ZM233.74 10.23L233.74 10.23Q232.3 10.23 231.05 10.01 229.79 9.78 228.98 9.45L228.98 9.45 230.68 3.8Q232.01 4.21 233.09 4.24 234.16 4.28 234.95 3.75 235.74 3.21 236.24 1.94L236.24 1.94 236.68 0.78 226.9-27.27 234.85-27.27 240.5-7.24 240.79-7.24 246.48-27.27 254.49-27.27 243.89 2.95Q243.13 5.15 241.82 6.79 240.52 8.43 238.53 9.33 236.54 10.23 233.74 10.23Z" opacity="1" transform="matrix(1,0,0,1,0,0)" fill="#fe5200" class="wordmark-text-0" data-fill-palette-color="primary" id="text-0"></path></svg></g></svg></g></svg></g></svg></g><g><svg viewBox="0 0 178.5106051482457 178.5106051482457" height="178.5106051482457" width="178.5106051482457"><g><svg></svg></g><g id="icon-0"><svg viewBox="0 0 178.5106051482457 178.5106051482457" height="178.5106051482457" width="178.5106051482457"><g><path d="M0 89.255c0-49.294 39.961-89.255 89.255-89.255 49.294 0 89.255 39.961 89.256 89.255 0 49.294-39.961 89.255-89.256 89.256-49.294 0-89.255-39.961-89.255-89.256zM89.255 171.899c45.643 0 82.644-37.001 82.644-82.644 0-45.643-37.001-82.644-82.644-82.643-45.643 0-82.644 37.001-82.643 82.643 0 45.643 37.001 82.644 82.643 82.644z" data-fill-palette-color="accent" fill="#fe5200" stroke="transparent"></path></g><g transform="matrix(1,0,0,1,37.60342325473489,40.425136451141064)"><svg viewBox="0 0 103.30375863877592 97.66033224596357" height="97.66033224596357" width="103.30375863877592"><g><svg xmlns="http://www.w3.org/2000/svg" xmlns:xlink="http://www.w3.org/1999/xlink" version="1.1" x="0" y="0" viewBox="2.522716300446047 5.008139777365489 90.95254684264506 85.98386022263452" enable-background="new 0 0 96 96" xml:space="preserve" height="97.66033224596357" width="103.30375863877592" class="icon-dxe-0" data-fill-palette-color="accent" id="dxe-0"><path d="M48 38.124C28.54 38.124 14 58.187 14 76.124 14 81.848 15.448 85.779 18.428 88.156 21.58 90.672 25.98 90.992 29.46 90.992 31.964 90.992 34.696 90.8 37.592 90.592 44.264 90.132 51.744 90.132 58.408 90.592 61.308 90.8 64.032 90.992 66.54 90.992 74.18 90.992 82 89.228 82 76.124 82 58.188 67.46 38.124 48 38.124" fill="#fe5200" data-fill-palette-color="accent"></path><path d="M20.152 49.229C22.464 48.285 24.224 46.409 25.112 43.957 26.28 40.717 25.864 36.809 23.972 33.229 20.672 27.009 13.424 23.541 8.14 25.713 5.828 26.657 4.068 28.537 3.18 30.993 2.004 34.229 2.42 38.137 4.316 41.721 6.916 46.633 11.84 49.925 16.568 49.925A9.5 9.5 0 0 0 20.152 49.229" fill="#fe5200" data-fill-palette-color="accent"></path><path d="M38.884 37.488C39.388 37.488 39.896 37.436 40.404 37.336 46.364 36.116 49.956 28.132 48.584 19.16 47.224 10.204 41.268 3.94 35.296 5.16 29.34 6.376 25.748 14.356 27.12 23.332 28.368 31.536 33.32 37.488 38.884 37.488" fill="#fe5200" data-fill-palette-color="accent"></path><path d="M92.82 30.992C91.935 28.54 90.172 26.656 87.859 25.712 82.568 23.532 75.32 27.008 72.032 33.228 70.132 36.812 69.724 40.72 70.896 43.956 71.784 46.408 73.543 48.284 75.851 49.228A9.5 9.5 0 0 0 79.435 49.923C84.164 49.923 89.083 46.627 91.679 41.719 93.58 38.14 93.992 34.236 92.82 30.992" fill="#fe5200" data-fill-palette-color="accent"></path><path d="M59.584 37.336C60.092 37.436 60.6 37.488 61.104 37.488 66.672 37.488 71.617 31.536 72.864 23.332 74.233 14.356 70.637 6.376 64.692 5.16 58.709 3.94 52.764 10.204 51.397 19.16 50.04 28.132 53.632 36.116 59.584 37.336" fill="#fe5200" data-fill-palette-color="accent"></path></svg></g></svg></g></svg></g></svg></g></svg></g><defs></defs></svg><rect width="395.52" height="116.00252868112152" fill="none" stroke="none" visibility="hidden"></rect></g></svg></g></svg>