<svg width="167" height="138" viewBox="0 0 167 138" fill="none" xmlns="http://www.w3.org/2000/svg">
<g clip-path="url(#clip0_125_12)">
<path d="M121.076 94.2907C121.607 95.8432 122.608 97.1215 123.858 97.9981C125.108 98.876 126.613 99.3651 128.176 99.3661C128.984 99.3661 129.806 99.2341 130.605 98.9608L130.607 98.9599C132.159 98.4293 133.437 97.4287 134.314 96.1781C135.191 94.9284 135.681 93.424 135.681 91.8604C135.681 91.0529 135.549 90.2296 135.275 89.4285C134.745 87.8778 133.744 86.5996 132.494 85.7218C131.244 84.8441 129.74 84.354 128.176 84.354C127.369 84.354 126.546 84.4851 125.743 84.7611C124.192 85.2917 122.914 86.2923 122.038 87.5421C121.16 88.7918 120.67 90.2961 120.67 91.8596C120.67 92.6654 120.801 93.486 121.074 94.2852L121.076 94.2907ZM125.131 89.7145C125.57 89.0925 126.191 88.6042 126.97 88.3374L126.807 88.3929L126.972 88.3356C127.374 88.198 127.777 88.1344 128.176 88.1344C128.946 88.1334 129.698 88.3772 130.32 88.8156C130.943 89.2549 131.431 89.8752 131.698 90.6533V90.6541C131.837 91.0575 131.901 91.4618 131.901 91.8604C131.901 92.6303 131.658 93.3825 131.22 94.0054C130.781 94.6285 130.161 95.1158 129.382 95.3835H129.384C128.979 95.521 128.574 95.5847 128.176 95.5847C127.406 95.5856 126.653 95.342 126.031 94.9045C125.41 94.4671 124.923 93.8487 124.655 93.0716L124.653 93.0669C124.514 92.6617 124.45 92.2583 124.45 91.8596C124.45 91.0898 124.694 90.3376 125.131 89.7145Z" fill="#A6A6A6"/>
<path d="M121.075 94.2906C121.075 94.2888 121.075 94.2869 121.074 94.285L121.024 94.1411L121.075 94.2906Z" fill="#A6A6A6"/>
<path d="M143.677 98.5365L143.421 98.4489L143.678 98.5375C144.479 98.8116 145.301 98.9427 146.108 98.9427C147.672 98.9418 149.176 98.4526 150.426 97.5749C151.676 96.6981 152.677 95.4197 153.208 93.8682C153.483 93.0662 153.614 92.2438 153.614 91.4362C153.614 89.8727 153.124 88.3683 152.246 87.1178C151.37 85.8681 150.091 84.8666 148.539 84.3368L148.54 84.3376C147.74 84.0626 146.917 83.9297 146.108 83.9297C144.544 83.9306 143.04 84.4207 141.79 85.2984C140.54 86.1752 139.539 87.4535 139.009 89.006C138.734 89.8063 138.603 90.6295 138.603 91.4372C138.603 93.0007 139.093 94.5052 139.97 95.7547C140.847 97.0043 142.125 98.0058 143.677 98.5365ZM142.586 90.2306C142.853 89.4507 143.341 88.8305 143.964 88.3911C144.586 87.9536 145.338 87.7099 146.108 87.7099C146.505 87.7099 146.909 87.7746 147.314 87.9129L147.315 87.9138C148.094 88.1805 148.714 88.6679 149.153 89.2909C149.591 89.9139 149.834 90.6661 149.834 91.4359C149.834 91.8347 149.769 92.2389 149.632 92.6432C149.364 93.4213 148.876 94.0414 148.253 94.4809C147.631 94.9185 146.878 95.162 146.108 95.162C145.709 95.162 145.304 95.0973 144.9 94.9598L145.156 95.0475L144.902 94.9608C144.123 94.6922 143.503 94.204 143.064 93.5818C142.626 92.9588 142.383 92.2065 142.383 91.4368C142.383 91.0383 142.447 90.634 142.586 90.2306Z" fill="#A6A6A6"/>
<path d="M165.631 101.718C164.755 100.468 163.476 99.4667 161.924 98.9369H161.925C161.125 98.6628 160.302 98.5298 159.493 98.5308C157.93 98.5308 156.425 99.0199 155.175 99.8986C153.926 100.775 152.925 102.055 152.395 103.606C152.12 104.406 151.988 105.23 151.988 106.038C151.989 107.601 152.478 109.105 153.356 110.355C154.233 111.606 155.511 112.606 157.062 113.137L157.064 113.138C157.865 113.411 158.687 113.543 159.493 113.543C161.057 113.542 162.561 113.053 163.812 112.175C165.062 111.298 166.063 110.02 166.594 108.467C166.868 107.666 167 106.844 167 106.036C166.999 104.473 166.51 102.968 165.631 101.718ZM163.017 107.244C162.749 108.022 162.261 108.642 161.639 109.081C161.016 109.519 160.263 109.762 159.493 109.761C159.094 109.761 158.69 109.698 158.286 109.56H158.288C157.509 109.293 156.889 108.804 156.449 108.181C156.012 107.559 155.768 106.807 155.769 106.038C155.769 105.639 155.833 105.235 155.971 104.831C156.239 104.051 156.727 103.431 157.349 102.992C157.972 102.554 158.723 102.31 159.493 102.311C159.89 102.311 160.295 102.375 160.699 102.514L160.7 102.514C161.479 102.781 162.099 103.269 162.538 103.892C162.976 104.514 163.22 105.267 163.219 106.037C163.219 106.435 163.155 106.839 163.017 107.244Z" fill="#A6A6A6"/>
<path d="M121.606 108.468C121.88 107.666 122.012 106.844 122.012 106.036C122.011 104.473 121.522 102.968 120.643 101.718C119.767 100.468 118.488 99.4667 116.936 98.9369L116.933 98.936C116.135 98.6628 115.313 98.5298 114.505 98.5308C112.942 98.5308 111.437 99.0199 110.187 99.8986C108.937 100.775 107.936 102.055 107.407 103.606V103.605C107.132 104.407 107 105.23 107 106.038C107 107.601 107.49 109.105 108.368 110.355C109.245 111.606 110.523 112.606 112.074 113.137L112.076 113.138C112.876 113.411 113.698 113.543 114.505 113.543C116.069 113.542 117.573 113.053 118.824 112.175C120.074 111.298 121.075 110.02 121.606 108.468ZM118.029 107.244C117.761 108.022 117.273 108.642 116.651 109.081C116.028 109.519 115.275 109.762 114.505 109.762C114.106 109.762 113.702 109.698 113.298 109.56H113.3C112.521 109.293 111.9 108.804 111.461 108.182C111.024 107.559 110.78 106.807 110.78 106.038C110.78 105.639 110.845 105.235 110.983 104.831L110.984 104.827C111.253 104.049 111.739 103.43 112.361 102.992C112.983 102.554 113.735 102.31 114.505 102.311C114.902 102.311 115.306 102.375 115.711 102.514L116.069 102.636L115.712 102.514C116.491 102.781 117.111 103.269 117.55 103.892C117.988 104.514 118.231 105.267 118.231 106.037C118.231 106.435 118.167 106.839 118.029 107.244Z" fill="#A6A6A6"/>
<path d="M146.665 105.448C145.221 104.296 143.658 103.342 142.014 102.664C140.371 101.989 138.642 101.59 136.888 101.59C134.549 101.592 132.259 102.295 130.147 103.431C126.978 105.141 124.168 107.829 122.092 110.952C120.027 114.077 118.678 117.653 118.67 121.236C118.67 122.538 118.854 123.837 119.261 125.091C119.69 126.418 120.267 127.55 120.98 128.49C122.046 129.904 123.428 130.847 124.862 131.377C126.298 131.911 127.771 132.07 129.182 132.071C130.733 132.07 132.226 131.877 133.56 131.699C134.89 131.518 136.075 131.357 136.888 131.361C137.702 131.357 138.887 131.518 140.216 131.699C141.551 131.877 143.044 132.07 144.595 132.071C146.469 132.069 148.482 131.789 150.322 130.708C151.236 130.169 152.085 129.429 152.797 128.49C153.51 127.55 154.087 126.418 154.516 125.092C154.923 123.837 155.107 122.538 155.107 121.236C155.105 118.849 154.496 116.461 153.488 114.211C151.969 110.837 149.549 107.753 146.665 105.448ZM150.92 123.926C150.6 124.913 150.208 125.647 149.785 126.205C149.147 127.036 148.447 127.51 147.591 127.836C146.739 128.156 145.717 128.291 144.595 128.291C143.363 128.291 142.029 128.129 140.719 127.953C139.405 127.778 138.128 127.585 136.888 127.581C135.649 127.584 134.372 127.778 133.057 127.952C131.748 128.129 130.413 128.291 129.181 128.291C127.679 128.292 126.381 128.05 125.378 127.452C124.871 127.151 124.416 126.761 123.992 126.205C123.569 125.647 123.177 124.913 122.856 123.926C122.583 123.082 122.45 122.183 122.45 121.236C122.448 119.503 122.905 117.612 123.738 115.759C124.98 112.98 127.07 110.312 129.469 108.403C130.667 107.447 131.938 106.679 133.201 106.16C134.464 105.64 135.713 105.369 136.888 105.37C138.453 105.368 140.157 105.854 141.838 106.76C144.359 108.111 146.79 110.404 148.534 113.041C150.287 115.675 151.334 118.638 151.326 121.236C151.326 122.183 151.193 123.082 150.92 123.926Z" fill="#A6A6A6"/>
</g>
<path d="M70.1351 78.3604L61.6912 69.9868C57.8105 66.1385 55.8699 64.2141 53.6358 63.4924C51.6706 62.8571 49.5554 62.8571 47.5898 63.4924C45.3558 64.2141 43.4153 66.1385 39.5344 69.9868L19.8731 89.7892M70.1351 78.3604L71.8132 76.6956C75.776 72.7662 77.7569 70.8015 80.0304 70.0846C82.0295 69.4538 84.1776 69.4784 86.162 70.1549C88.4177 70.9244 90.3534 72.9338 94.2243 76.9532L98.3337 81.1255M70.1351 78.3604L89.582 98.1504M19.8731 89.7892C20.0241 91.0695 20.2857 92.0749 20.7388 92.9643C21.6815 94.8145 23.1859 96.319 25.0361 97.2615C27.1395 98.3333 29.8931 98.3333 35.4003 98.3333H82.6003C85.6551 98.3333 87.8626 98.3333 89.582 98.1504M19.8731 89.7892C19.667 88.0408 19.667 85.7791 19.667 82.6V35.4C19.667 29.8928 19.667 27.1392 20.7388 25.0358C21.6815 23.1855 23.1859 21.6812 25.0361 20.7385C27.1395 19.6667 29.8931 19.6667 35.4003 19.6667H54.0837M89.582 98.1504C90.9621 98.0034 92.028 97.7389 92.9647 97.2615C94.8148 96.319 96.3193 94.8145 97.2618 92.9643C98.3337 90.861 98.3337 88.1072 98.3337 82.6V63.9167M88.5003 44.25V29.5M88.5003 29.5V14.75M88.5003 29.5H103.25M88.5003 29.5H73.7503" stroke="#A6A6A6" stroke-width="5" stroke-linecap="round" stroke-linejoin="round"/>
<defs>
<clipPath id="clip0_125_12">
<rect width="60" height="60" fill="white" transform="translate(107 78)"/>
</clipPath>
</defs>
</svg>
