<svg width="61" height="61" viewBox="0 0 61 61" fill="none" xmlns="http://www.w3.org/2000/svg">
<path d="M36.4176 40.3565L32.1241 36.0987C30.1509 34.142 29.1641 33.1635 28.0281 32.7965C27.0289 32.4735 25.9534 32.4735 24.9539 32.7965C23.818 33.1635 22.8313 34.142 20.8579 36.0987L10.8607 46.1677M36.4176 40.3565L37.2709 39.51C39.2859 37.512 40.2931 36.513 41.4491 36.1485C42.4656 35.8277 43.5579 35.8402 44.5669 36.1842C45.7139 36.5755 46.6981 37.5972 48.6664 39.641L50.7559 41.7625M36.4176 40.3565L46.3059 50.4192M10.8607 46.1677C10.9375 46.8187 11.0704 47.33 11.3008 47.7822C11.7802 48.723 12.5451 49.488 13.4859 49.9672C14.5555 50.5122 15.9556 50.5122 18.7559 50.5122H42.7559C44.3091 50.5122 45.4316 50.5122 46.3059 50.4192M10.8607 46.1677C10.7559 45.2787 10.7559 44.1287 10.7559 42.5122V18.5122C10.7559 15.712 10.7559 14.3118 11.3008 13.2423C11.7802 12.3014 12.5451 11.5365 13.4859 11.0572C14.5555 10.5122 15.9556 10.5122 18.7559 10.5122H28.2559M46.3059 50.4192C47.0076 50.3445 47.5496 50.21 48.0259 49.9672C48.9666 49.488 49.7316 48.723 50.2109 47.7822C50.7559 46.7127 50.7559 45.3125 50.7559 42.5122V33.0122M45.7559 23.0122V15.5122M45.7559 15.5122V8.01221M45.7559 15.5122H53.2559M45.7559 15.5122H38.2559" stroke="#D2D2D2" stroke-width="2" stroke-linecap="round" stroke-linejoin="round"/>
</svg>
