<svg width="49" height="49" viewBox="0 0 49 49" fill="none" xmlns="http://www.w3.org/2000/svg">
<path d="M24.4997 20.4166C29.01 20.4166 32.6663 16.7602 32.6663 12.2499C32.6663 7.73959 29.01 4.08325 24.4997 4.08325C19.9893 4.08325 16.333 7.73959 16.333 12.2499C16.333 16.7602 19.9893 20.4166 24.4997 20.4166Z" fill="#242424"/>
<path d="M40.3337 35.7292C40.3337 38.3098 40.3068 40.3474 38.4763 41.8381C37.5417 42.5991 36.0976 43.2485 33.8438 43.7047C31.5923 44.1604 28.5665 44.4167 24.5003 44.4167C20.4342 44.4167 17.4083 44.1604 15.1568 43.7047C12.9031 43.2485 11.4589 42.5991 10.5244 41.8381C8.69387 40.3474 8.66699 38.3098 8.66699 35.7292C8.66699 33.453 10.3125 31.2905 13.196 29.6685C16.064 28.0553 20.0596 27.0417 24.5003 27.0417C28.9411 27.0417 32.9367 28.0553 35.8046 29.6685C38.6882 31.2905 40.3337 33.453 40.3337 35.7292Z" fill="#242424" stroke="black"/>
</svg>
