<svg width="115" height="96" viewBox="0 0 115 96" fill="none" xmlns="http://www.w3.org/2000/svg">
<path d="M70.0635 4.25211L72.2223 0C73.6711 0.73868 75.0837 1.54415 76.4575 2.41297L76.4585 2.41111C83.2571 6.69742 89.112 12.5647 93.3905 19.379L93.3887 19.3801C94.2551 20.7562 95.0594 22.1728 95.7963 23.6242L91.5534 25.7881C86.8797 16.5831 79.2475 8.93492 70.0635 4.25211ZM4.24312 70.2122L0 72.3755C0.737118 73.8274 1.54089 75.243 2.40787 76.6197L2.40628 76.621C6.68326 83.434 12.5384 89.3013 19.3383 93.5889L19.3394 93.587C20.7126 94.4551 22.1262 95.2611 23.5746 96L25.7336 91.7479C16.548 87.0638 8.91604 79.4154 4.24312 70.2122ZM115 79.951L113.499 84.4785C98.2613 79.4037 98.0762 67.4104 97.9127 56.829C97.7799 48.2278 97.663 40.6117 90.5828 36.0437C91.6487 39.8879 92.199 43.9012 92.199 48.0001C92.199 59.8582 87.5909 71.0071 79.2234 79.392C70.587 88.0465 59.2424 92.3739 47.8982 92.3739C43.1009 92.3739 38.3032 91.6 33.7107 90.0524C33.5689 90.0118 33.4279 89.9681 33.2886 89.9212L33.2925 89.909C27.1887 87.7833 21.4568 84.2818 16.5874 79.4069C16.5821 79.4016 16.5774 79.3968 16.5723 79.3918C16.567 79.3865 16.5623 79.3817 16.5573 79.3767C8.19981 70.9938 3.59699 59.8511 3.59699 48.0001C3.59699 36.1418 8.2051 24.9932 16.5729 16.6082C24.9401 8.22301 36.0651 3.60514 47.8984 3.60514C59.7317 3.60514 70.8565 8.22301 79.2237 16.6082C83.0392 20.4318 86.0731 24.8302 88.2447 29.6081C102.335 34.8324 102.514 46.4645 102.673 56.7554C102.832 67.0518 102.969 75.9443 115 79.951ZM9.28526 44.5307C12.7251 37.8919 17.963 30.9559 24.4326 24.4726C31.6165 17.2735 39.2976 11.6837 46.1589 8.41305C36.2497 8.83977 26.9959 12.9095 19.939 19.9815C12.8627 27.0725 8.79861 36.3777 8.39157 46.3383C8.68699 45.7107 8.98718 45.1058 9.28526 44.5307ZM16.7294 59.9823C20.2979 51.961 26.7341 43.0629 34.853 34.9271C42.9716 26.7913 51.8509 20.3414 59.855 16.7654C62.9375 15.3885 65.7916 14.4916 68.3595 14.076C65.5036 12.3389 62.4464 10.9797 59.2525 10.0256C53.3394 9.13927 40.6436 14.9745 27.7986 27.8467C14.2814 41.3928 8.67139 54.6064 10.2554 60.1614L10.2461 60.1641C11.1811 63.0809 12.4543 65.8779 14.0455 68.5051C14.4602 65.9309 15.3552 63.0716 16.7294 59.9823ZM27.5596 77.0551C29.517 67.997 37.2243 56.2966 46.7008 46.8C56.1752 37.3056 67.8506 29.5846 76.8907 27.6248C77.6228 24.1185 77.2906 21.4177 75.8576 19.9817C74.9147 19.0368 73.4249 18.5696 71.5195 18.5696C68.9345 18.5696 65.584 19.4294 61.7936 21.1227C54.3085 24.4668 45.9362 30.5673 38.2193 38.3008C30.5025 46.034 24.4148 54.4238 21.0778 61.925C18.1426 68.5231 17.7168 73.7916 19.9392 76.0188C21.3711 77.4535 24.0639 77.7861 27.5596 77.0551ZM71.8359 34.3665C64.9328 37.4659 56.9983 43.2277 50.0669 50.1738C43.134 57.1211 37.3828 65.0719 34.2875 71.9872C33.7675 73.1489 33.3293 74.2637 32.9736 75.3215C33.3129 75.1807 33.6562 75.0326 34.0029 74.8775C41.4881 71.5335 49.8604 65.4329 57.5772 57.6994C65.2941 49.9662 71.3817 41.5765 74.719 34.0752C74.8721 33.7309 75.0187 33.3898 75.1583 33.0532C74.1041 33.4086 72.993 33.847 71.8359 34.3665ZM67.4404 67.5838C73.6068 61.4042 78.7825 54.5891 82.0137 48.394C84.9868 42.6937 86.1624 37.7893 85.2389 34.9382L85.2492 34.9348C85.0061 34.2356 84.7435 33.5435 84.4615 32.8595C83.5911 32.1759 82.2904 31.8674 80.6551 31.9188C80.2266 33.2332 79.6971 34.6013 79.0671 36.018C75.4987 44.0393 69.0622 52.9371 60.9436 61.0729C52.825 69.2087 43.9457 75.6586 35.9416 79.2346C34.525 79.8675 33.156 80.3992 31.8418 80.8291C31.7892 82.444 32.0902 83.7319 32.7532 84.6025C33.529 84.9235 34.3132 85.2193 35.1042 85.4889C40.7671 87.0118 54.2217 80.8304 67.4404 67.5838ZM87.4383 48.1382C87.0453 49.0017 86.6377 49.8281 86.2331 50.6037C82.7842 57.2163 77.3059 64.4448 70.8067 70.9575C64.2891 77.489 57.0514 82.9887 50.4266 86.4436C49.6789 86.8337 48.8839 87.2262 48.0545 87.6058C58.1279 87.5663 68.1886 83.704 75.8576 76.0188C83.2933 68.5671 87.4029 58.6708 87.4383 48.1382Z" fill="#DE692C"/>
</svg>
